<svg xmlns="http://www.w3.org/2000/svg" viewBox="0 0 64 64" role="img" aria-label="Gelişim Teknik favicon">
  <rect width="64" height="64" rx="14" fill="#0b1736"/>
  <path
    d="M35.5 12.5c-12.2 0-21 8.7-21 19.8 0 11.4 8.8 19.9 21.2 19.9 6.7 0 11.8-2.2 15.5-5.5V30.1H34.4v8.2h7.4v3.2c-1.5 1.1-3.5 1.8-6.1 1.8-6.8 0-11-4.4-11-11 0-6.4 4.3-10.9 10.8-10.9 3.8 0 6.6 1.3 9 3.7l6.3-6.1c-3.9-4.1-8.8-6.5-15.3-6.5Z"
    fill="#fff"
  />
  <circle cx="49" cy="18" r="5" fill="#f04438"/>
  <circle cx="49" cy="47" r="5" fill="#38bdf8"/>
</svg>
