<svg xmlns="http://www.w3.org/2000/svg" viewBox="0 0 64 64" aria-hidden="true">
  <path fill="#fff" fill-rule="evenodd" d="M32 8C18.8 8 8 18.4 8 31.3c0 4.5 1.3 8.8 3.8 12.6L8 56l12.6-3.6A24.4 24.4 0 0 0 32 55c13.2 0 24-10.4 24-23.3S45.2 8 32 8Zm0 42.7c-3.7 0-7.2-1-10.3-2.8l-.8-.5-7.1 2 2.1-6.8-.5-.8a18.9 18.9 0 0 1-3.1-10.5c0-10.5 8.8-19 19.7-19s19.7 8.5 19.7 19-8.8 19.4-19.7 19.4Z" clip-rule="evenodd"/>
  <path fill="#fff" d="M42.9 36.3c-.6-.3-3.5-1.7-4-1.9-.5-.2-.9-.3-1.3.3-.4.6-1.5 1.9-1.9 2.3-.3.4-.7.4-1.3.1-.6-.3-2.5-.9-4.8-3-1.8-1.6-3-3.5-3.3-4.1-.3-.6 0-.9.3-1.2.3-.3.6-.7.9-1 .3-.3.4-.6.6-1 .2-.4.1-.8 0-1.1-.2-.3-1.3-3.1-1.8-4.2-.5-1.1-1-1-1.3-1h-1.1c-.4 0-1 .1-1.5.7-.5.6-2 1.9-2 4.7 0 2.8 2.1 5.5 2.4 5.9.3.4 4.1 6.1 10 8.6 1.4.6 2.5.9 3.3 1.2 1.4.4 2.7.4 3.8.2 1.1-.2 3.5-1.4 4-2.8.5-1.4.5-2.5.3-2.8-.2-.3-.6-.5-1.2-.8Z"/>
</svg>
